<svg width="40" height="40" viewBox="0 0 40 40" fill="none" xmlns="http://www.w3.org/2000/svg">
<g clip-path="url(#clip0)">
<path d="M39.375 5.56489C39.3613 5.31145 39.186 5.0956 38.9407 5.03028L20.1363 0.0197461C20.0373 -0.00658202 19.9333 -0.00658202 19.8343 0.0197461L1.05922 5.03036C0.81438 5.09575 0.639224 5.31106 0.625162 5.56411C0.612115 5.79848 0.331569 11.3864 2.52899 18.4511C3.82047 22.6031 5.70578 26.3941 8.13265 29.7188C11.1684 33.8777 15.0622 37.3113 19.7056 39.9247C19.7947 39.9748 19.8938 40 19.9929 40C20.0873 40 20.1818 39.9772 20.2678 39.9315C24.919 37.4609 28.8193 34.1144 31.8599 29.9848C34.2896 26.685 36.177 22.883 37.4698 18.6842C39.6684 11.5433 39.3881 5.80575 39.375 5.56489ZM36.3375 18.3789C35.0813 22.4446 33.2523 26.1224 30.9014 29.3101C28.1593 33.0281 24.6918 36.0885 20.5861 38.4189V35.4044C25.9087 32.0442 29.9229 27.2875 32.5178 21.2601C34.6545 16.2974 35.3507 11.5864 35.5585 8.50832C35.5774 8.22864 35.3956 7.97473 35.1247 7.90262L33.9298 7.58426C33.6172 7.50098 33.296 7.68684 33.2127 7.99965C33.1294 8.31231 33.3153 8.63348 33.6281 8.71676L34.3536 8.91012C34.1132 11.8942 33.4042 16.2377 31.4414 20.7967C28.9557 26.5703 25.1231 31.1319 20.0465 34.3606C19.5368 34.0237 19.0357 33.672 18.5528 33.3125C18.2933 33.1192 17.9261 33.1729 17.7328 33.4325C17.5395 33.692 17.5932 34.0592 17.8528 34.2525C18.3574 34.6283 18.8815 34.9946 19.414 35.3462V38.3998C15.3065 35.9426 11.8381 32.801 9.09515 29.0495C6.74492 25.835 4.91664 22.166 3.66102 18.1445C1.85375 12.3557 1.76539 7.4759 1.78414 6.04989L19.414 1.3449V4.02138L4.88375 7.89918C4.61219 7.97168 4.43031 8.22676 4.45031 8.50715C4.60164 10.6248 5.02758 13.9196 6.19781 17.5906C8.13241 23.6595 11.3816 28.7225 15.8551 32.6391C15.9663 32.7365 16.1039 32.7842 16.241 32.7842C16.404 32.7842 16.5662 32.7166 16.6822 32.5842C16.8954 32.3407 16.8708 31.9705 16.6272 31.7573C12.3166 27.9834 9.18335 23.0973 7.31445 17.2347C6.2646 13.9414 5.83226 10.9603 5.65718 8.90598L19.9863 5.08192L31.0953 8.042C31.408 8.1252 31.7291 7.93942 31.8124 7.62661C31.8956 7.31395 31.7098 6.99278 31.397 6.9095L20.5861 4.0288V1.35248L38.2158 6.05013C38.2352 7.50051 38.1506 12.5111 36.3375 18.3789Z" fill="#DA8A67"/>
<path d="M28.816 13.6919C28.4689 13.3443 28.0071 13.153 27.5157 13.153C27.0242 13.153 26.5624 13.3443 26.2156 13.6916L18.7471 21.1598L14.6697 17.0828C14.3228 16.7353 13.8609 16.5439 13.3695 16.5439C12.878 16.5439 12.4163 16.7352 12.0696 17.0824C11.7222 17.4297 11.5308 17.8914 11.5308 18.3826C11.5308 18.8739 11.7221 19.3355 12.0694 19.6826L17.4467 25.06C17.7938 25.4075 18.2555 25.5989 18.747 25.5989C19.2385 25.5989 19.7002 25.4075 20.0471 25.0602L28.8155 16.2918C29.1629 15.9447 29.3543 15.4829 29.3543 14.9916C29.3543 14.5004 29.163 14.0387 28.816 13.6919ZM27.9869 15.4629L19.2181 24.2317C19.0925 24.3575 18.9252 24.4268 18.747 24.4268C18.5688 24.4268 18.4015 24.3575 18.2757 24.2314L12.898 18.8537C12.7722 18.7279 12.7028 18.5607 12.7028 18.3826C12.7028 18.2044 12.7722 18.0372 12.8984 17.9109C13.024 17.7851 13.1914 17.7158 13.3695 17.7158C13.5476 17.7158 13.7148 17.7851 13.8408 17.9111L18.3328 22.4028C18.5616 22.6316 18.9327 22.6315 19.1615 22.4028L27.0446 14.5199C27.1703 14.3941 27.3376 14.3248 27.5157 14.3248C27.6939 14.3248 27.8611 14.3941 27.9871 14.5203C28.113 14.6461 28.1824 14.8134 28.1824 14.9915C28.1824 15.1695 28.1129 15.3369 27.9869 15.4629Z" fill="#DA8A67"/>
</g>
<defs>
<clipPath id="clip0">
<rect width="40" height="40" fill="white"/>
</clipPath>
</defs>
</svg>
