<svg width="40" height="40" viewBox="0 0 40 40" fill="none" xmlns="http://www.w3.org/2000/svg">
<g clip-path="url(#clip0)">
<path d="M38.4163 8.8259L20.2547 0.0582422C20.0937 -0.0194141 19.9062 -0.0194141 19.7453 0.0582422L1.58361 8.8259C1.38111 8.92363 1.25244 9.12871 1.25244 9.35355V30.6464C1.25244 30.8713 1.38111 31.0764 1.58361 31.1741L19.7452 39.9418C19.8256 39.9806 19.9128 40 19.9999 40C20.0871 40 20.1742 39.9806 20.2547 39.9418L38.4163 31.1741C38.6188 31.0764 38.7474 30.8713 38.7474 30.6464V9.35363C38.7474 9.12863 38.6187 8.92371 38.4163 8.8259ZM19.9999 1.2366L36.8138 9.35355L31.9398 11.7065C31.9089 11.683 31.8763 11.6613 31.8406 11.644L15.141 3.5823L19.9999 1.2366ZM13.8177 4.2448L30.6071 12.35L27.1684 14.01L10.386 5.90816L13.8177 4.2448ZM30.9999 13.4615V19.5979L27.7879 21.1486V15.0121L30.9999 13.4615ZM37.5756 30.2788L20.5859 38.4805V18.4889L24.6385 16.5325C24.9299 16.3918 25.0521 16.0416 24.9113 15.7501C24.7706 15.4588 24.4204 15.3364 24.1289 15.4772L19.9999 17.4706L18.3753 16.6862C18.0838 16.5454 17.7335 16.6677 17.5928 16.9591C17.4521 17.2505 17.5743 17.6008 17.8657 17.7415L19.414 18.4889V38.4805L2.42432 30.2786V10.2871L15.3618 16.5328C15.4439 16.5725 15.5307 16.5912 15.6161 16.5912C15.8339 16.5912 16.0431 16.4692 16.1442 16.2599C16.2849 15.9685 16.1627 15.6182 15.8713 15.4775L3.18611 9.35355L9.00682 6.54356L26.6079 15.0407C26.6105 15.0443 26.6134 15.0475 26.616 15.051V22.0821C26.616 22.2838 26.7197 22.4712 26.8905 22.5785C26.9853 22.638 27.0935 22.6681 27.2021 22.6681C27.2889 22.6681 27.376 22.6488 27.4567 22.6098L31.8406 20.4935C32.0431 20.3957 32.1717 20.1907 32.1717 19.9658V12.8959L37.5756 10.2871V30.2788Z" fill="#DA8A67"/>
<path d="M7.25998 28.0063L4.59475 26.7196C4.30318 26.5788 3.95303 26.7011 3.81232 26.9925C3.67162 27.2839 3.79381 27.6342 4.08521 27.7749L6.75045 29.0616C6.83256 29.1012 6.91936 29.12 7.00475 29.12C7.22256 29.12 7.43178 28.998 7.5328 28.7887C7.67358 28.4972 7.55139 28.147 7.25998 28.0063Z" fill="#DA8A67"/>
<path d="M9.71306 26.4096L4.5986 23.9405C4.30712 23.7998 3.95688 23.922 3.81618 24.2135C3.67556 24.5049 3.79774 24.8552 4.08915 24.9959L9.2036 27.465C9.28571 27.5046 9.37251 27.5234 9.4579 27.5234C9.67571 27.5234 9.88493 27.4014 9.98595 27.1921C10.1266 26.9005 10.0045 26.5502 9.71306 26.4096Z" fill="#DA8A67"/>
</g>
<defs>
<clipPath id="clip0">
<rect width="40" height="40" fill="white"/>
</clipPath>
</defs>
</svg>
