<svg width="40" height="40" viewBox="0 0 40 40" fill="none" xmlns="http://www.w3.org/2000/svg">
<g clip-path="url(#clip0)">
<path d="M30.5832 29.8209C30.4827 29.0608 30.0439 28.4054 29.3794 28.0228L21.8733 23.701C20.9171 23.1506 19.7048 23.3111 18.9249 24.091L16.9826 26.0332C16.6008 26.415 15.9947 26.4459 15.5727 26.1052C14.4269 25.1802 13.2984 24.1637 12.2185 23.0838C11.1384 22.0036 10.1217 20.8749 9.19705 19.7295C8.85634 19.3076 8.88736 18.7015 9.26908 18.3198L11.2113 16.3775C11.9913 15.5975 12.1517 14.3852 11.6013 13.4291L7.2797 5.92306C6.89712 5.2586 6.24181 4.81985 5.48173 4.7193C4.72142 4.6186 3.97478 4.87196 3.43252 5.41423L1.20478 7.64204C-1.9753 10.8221 1.34392 19.1236 8.76142 26.5412C14.2742 32.054 20.2745 35.3031 24.2985 35.3025C25.6888 35.3024 26.844 34.9143 27.6605 34.0977L29.8882 31.8699C30.4303 31.3278 30.6838 30.581 30.5832 29.8209ZM29.0595 31.0413L28.7622 31.3385L22.3357 27.6708C22.0548 27.5104 21.6968 27.6082 21.5363 27.8892C21.3758 28.1704 21.4736 28.5283 21.7548 28.6887L27.9031 32.1977L26.8317 33.2689C25.6245 34.4762 23.1352 34.417 20.0022 33.1069C16.658 31.7084 12.9602 29.0823 9.59033 25.7124C6.22041 22.3424 3.59431 18.6448 2.1958 15.3005C0.885562 12.1674 0.8265 9.67813 2.03369 8.47095L3.17783 7.3268L3.58392 8.03212C3.69236 8.22048 3.88955 8.32587 4.09228 8.32587C4.1915 8.32587 4.29205 8.30071 4.38416 8.24766C4.6647 8.08618 4.76111 7.7279 4.59962 7.44735L4.03611 6.4686L4.2615 6.24321C4.50314 6.00149 4.82275 5.87024 5.15798 5.87024C5.21431 5.87024 5.27119 5.87391 5.32814 5.88149C5.72384 5.93384 6.06502 6.16227 6.26416 6.50813L10.586 14.0143C10.8725 14.5119 10.7889 15.1431 10.383 15.549L9.67298 16.259L5.85212 9.62266C5.69064 9.34204 5.3322 9.24563 5.05181 9.4072C4.77127 9.56868 4.67486 9.92696 4.83642 10.2075L8.81478 17.1173L8.44072 17.4913C7.63416 18.2978 7.56744 19.5767 8.28548 20.4662C9.23619 21.6438 10.2807 22.8035 11.3902 23.9131C12.4992 25.022 13.6589 26.0667 14.837 27.0177C15.7264 27.7356 17.0053 27.6689 17.8118 26.8625L18.0819 26.5924L19.5286 27.4182C19.6203 27.4706 19.72 27.4953 19.8186 27.4953C20.022 27.4953 20.22 27.3891 20.3281 27.1997C20.4885 26.9185 20.3907 26.5607 20.1097 26.4002L18.941 25.7333L19.7542 24.9202C20.1603 24.5141 20.7913 24.4306 21.2889 24.7172L28.795 29.039C29.141 29.2381 29.3693 29.5792 29.4217 29.975C29.4736 30.3703 29.3417 30.7591 29.0595 31.0413Z" fill="#DA8A67"/>
<path d="M18.7441 19.7308H14.3537C14.5596 18.018 15.6558 16.856 16.8096 15.6329C18.0487 14.3192 19.3301 12.9609 19.3301 10.9213C19.3301 9.21671 17.9432 7.82983 16.2386 7.82983C14.534 7.82983 13.1471 9.21671 13.1471 10.9213C13.1471 11.2451 13.4096 11.5073 13.7331 11.5073C14.0568 11.5073 14.3192 11.245 14.3192 10.9213C14.3192 9.86296 15.1803 9.00194 16.2385 9.00194C17.2968 9.00194 18.1579 9.86304 18.1579 10.9214C18.1579 12.4953 17.1379 13.5766 15.9569 14.8287C14.6398 16.2248 13.147 17.8074 13.147 20.3169C13.147 20.6406 13.4094 20.9029 13.733 20.9029H18.7439C19.0676 20.9029 19.3299 20.6405 19.3299 20.3169C19.3301 19.9931 19.0678 19.7308 18.7441 19.7308Z" fill="#DA8A67"/>
<path d="M26.2604 16.599H25.5937V8.41585C25.5937 8.0921 25.3314 7.82983 25.0077 7.82983C24.684 7.82983 24.4217 8.09218 24.4217 8.41585V16.599H21.2989L22.4561 8.49866C22.5019 8.17819 22.2792 7.88147 21.9589 7.83569C21.6392 7.79069 21.3417 8.01265 21.2958 8.33296L20.043 17.1023C20.019 17.2704 20.0691 17.4408 20.1804 17.5691C20.2917 17.6974 20.4533 17.7711 20.6231 17.7711H24.4216V20.3169C24.4216 20.6406 24.6839 20.9029 25.0076 20.9029C25.3313 20.9029 25.5936 20.6405 25.5936 20.3169V17.7711H26.2603C26.5841 17.7711 26.8464 17.5087 26.8464 17.1851C26.8464 16.8614 26.5842 16.599 26.2604 16.599Z" fill="#DA8A67"/>
<path d="M39.8867 8.06944C39.7763 7.91882 39.6007 7.82983 39.414 7.82983H35.0294C34.7056 7.82983 34.4434 8.09218 34.4434 8.41585C34.4434 8.7396 34.7057 9.00187 35.0294 9.00187H38.6144L35.097 20.1404C34.9995 20.4491 35.1707 20.7782 35.4794 20.8758C35.5381 20.8943 35.5976 20.9031 35.656 20.9031C35.9049 20.9031 36.1358 20.7433 36.2147 20.4934L39.9729 8.59241C40.0291 8.41421 39.997 8.22007 39.8867 8.06944Z" fill="#DA8A67"/>
<path d="M32.6819 5.9723C32.3698 5.88535 32.0468 6.06699 31.9595 6.37863L27.575 22.0378C27.4879 22.3496 27.6697 22.6729 27.9814 22.7603C28.0343 22.775 28.0874 22.7821 28.1397 22.7821C28.3959 22.7821 28.6312 22.6128 28.7037 22.3539L33.0882 6.69472C33.1754 6.38301 32.9936 6.05957 32.6819 5.9723Z" fill="#DA8A67"/>
</g>
<defs>
<clipPath id="clip0">
<rect width="40" height="40" fill="white"/>
</clipPath>
</defs>
</svg>
