<svg width="40" height="40" viewBox="0 0 40 40" fill="none" xmlns="http://www.w3.org/2000/svg">
<path d="M28.7677 11.5859H2.46469C1.10563 11.5859 0 12.6916 0 14.0506V31.5859C0 32.945 1.10563 34.0506 2.46469 34.0506H28.7676C30.1266 34.0506 31.2323 32.945 31.2323 31.5859V14.0506C31.2323 12.6916 30.1267 11.5859 28.7677 11.5859ZM30.0605 31.5859C30.0605 32.2987 29.4805 32.8787 28.7676 32.8787H2.46469C1.7518 32.8787 1.17188 32.2987 1.17188 31.5859V14.0506C1.17188 13.3377 1.7518 12.7578 2.46469 12.7578H28.7676C29.4805 12.7578 30.0605 13.3377 30.0605 14.0506V31.5859Z" fill="#DA8A67"/>
<path d="M8.10076 18.4747H5.59576C4.58201 18.4747 3.75732 19.2995 3.75732 20.3132V21.5657C3.75732 22.5794 4.58201 23.4041 5.59576 23.4041H8.10076C9.11451 23.4041 9.9392 22.5793 9.9392 21.5657V20.3132C9.9392 19.2994 9.11443 18.4747 8.10076 18.4747ZM6.26232 22.2323H5.59576C5.22818 22.2323 4.9292 21.9333 4.9292 21.5657V20.3132C4.9292 19.9456 5.22826 19.6466 5.59576 19.6466H6.26232V22.2323ZM8.7674 21.5657C8.7674 21.9332 8.46834 22.2322 8.10084 22.2322H7.43428V19.6465H8.10084C8.46834 19.6466 8.7674 19.9456 8.7674 20.3132V21.5657Z" fill="#DA8A67"/>
<path d="M8.10084 25.3634H4.34326C4.01967 25.3634 3.75732 25.6257 3.75732 25.9493C3.75732 26.273 4.01967 26.5353 4.34326 26.5353H8.10084C8.42443 26.5353 8.68678 26.273 8.68678 25.9493C8.68678 25.6257 8.42443 25.3634 8.10084 25.3634Z" fill="#DA8A67"/>
<path d="M14.364 25.3634H10.6064C10.2829 25.3634 10.0205 25.6257 10.0205 25.9493C10.0205 26.273 10.2829 26.5353 10.6064 26.5353H14.364C14.6876 26.5353 14.95 26.273 14.95 25.9493C14.95 25.6257 14.6876 25.3634 14.364 25.3634Z" fill="#DA8A67"/>
<path d="M16.8684 28.4948H4.34326C4.01967 28.4948 3.75732 28.757 3.75732 29.0807C3.75732 29.4044 4.01967 29.6666 4.34326 29.6666H16.8685C17.1921 29.6666 17.4544 29.4044 17.4544 29.0807C17.4544 28.757 17.1921 28.4948 16.8684 28.4948Z" fill="#DA8A67"/>
<path d="M20.6262 25.3634H16.8687C16.5451 25.3634 16.2827 25.6257 16.2827 25.9493C16.2827 26.273 16.5451 26.5353 16.8687 26.5353H20.6262C20.9498 26.5353 21.2122 26.273 21.2122 25.9493C21.2122 25.6257 20.9498 25.3634 20.6262 25.3634Z" fill="#DA8A67"/>
<path d="M26.8889 25.3634H23.1313C22.8078 25.3634 22.5454 25.6257 22.5454 25.9493C22.5454 26.273 22.8078 26.5353 23.1313 26.5353H26.8889C27.2125 26.5353 27.4749 26.273 27.4749 25.9493C27.4749 25.6257 27.2125 25.3634 26.8889 25.3634Z" fill="#DA8A67"/>
<path d="M24.3842 15.3434C23.3543 15.3434 22.4411 15.8501 21.8791 16.6267C21.3171 15.85 20.4039 15.3434 19.3741 15.3434C17.6698 15.3434 16.2832 16.7299 16.2832 18.4343C16.2832 20.1387 17.6698 21.5253 19.3741 21.5253C20.404 21.5253 21.3172 21.0185 21.8791 20.2419C22.4412 21.0186 23.3544 21.5253 24.3842 21.5253C26.0885 21.5253 27.4751 20.1387 27.4751 18.4343C27.4751 16.7299 26.0885 15.3434 24.3842 15.3434ZM19.3741 20.3534C18.3159 20.3534 17.455 19.4924 17.455 18.4343C17.455 17.3762 18.3159 16.5153 19.3741 16.5153C20.4322 16.5153 21.2931 17.3762 21.2931 18.4343C21.2931 19.4924 20.4323 20.3534 19.3741 20.3534ZM24.3842 20.3534C23.3259 20.3534 22.4651 19.4924 22.4651 18.4343C22.4651 17.3762 23.326 16.5153 24.3842 16.5153C25.4423 16.5153 26.3032 17.3762 26.3032 18.4343C26.3032 19.4924 25.4424 20.3534 24.3842 20.3534Z" fill="#DA8A67"/>
<path d="M37.5353 5.94946H11.2323C9.87328 5.94946 8.76758 7.05509 8.76758 8.41415V9.66665C8.76758 9.99032 9.02992 10.2526 9.35352 10.2526H38.8281V12.8384H33.1515C32.8279 12.8384 32.5655 13.1006 32.5655 13.4243C32.5655 13.748 32.8279 14.0102 33.1515 14.0102H38.8281V25.9495C38.8281 26.6624 38.2482 27.2423 37.5353 27.2423H33.1513C32.8277 27.2423 32.5654 27.5045 32.5654 27.8282C32.5654 28.1519 32.8277 28.4141 33.1513 28.4141H37.5353C38.8943 28.4141 40 27.3085 40 25.9495V8.41415C40 7.05517 38.8943 5.94946 37.5353 5.94946ZM38.8281 9.08071H9.93953V8.41415C9.93953 7.70134 10.5195 7.12134 11.2324 7.12134H37.5353C38.2482 7.12134 38.8281 7.70134 38.8281 8.41415V9.08071Z" fill="#DA8A67"/>
</svg>
