<svg width="40" height="40" viewBox="0 0 40 40" fill="none" xmlns="http://www.w3.org/2000/svg">
<path d="M19.9857 0C19.9854 0 19.9857 0 19.9854 0C15.729 0 11.7274 1.91797 9.00724 5.2618C6.15201 8.77172 5.04537 13.3382 5.97099 17.7905C6.99568 22.7191 10.1369 26.4441 12.9083 29.7305C15.3257 32.597 17.609 35.3047 18.0629 38.3042C18.2117 39.2869 19.02 40 19.9854 40C20.9504 40 21.7591 39.2863 21.9081 38.3029C22.3625 35.3038 24.6455 32.5966 27.0626 29.7304C30.478 25.6804 34.3491 21.09 34.3491 14.3637C34.349 6.44367 27.9057 7.8125e-05 19.9857 0ZM26.1668 28.9749C23.6401 31.9712 21.2534 34.8013 20.7494 38.1273C20.6879 38.5334 20.3666 38.8281 19.9851 38.8281C19.604 38.8281 19.283 38.5341 19.2217 38.1289C18.7183 34.8021 16.3313 31.9716 13.8042 28.975C10.9914 25.6395 8.08271 22.1904 7.11834 17.552C6.26482 13.4465 7.28459 9.23648 9.9163 6.00133C12.4131 2.93211 16.0833 1.1718 19.9857 1.17188C27.2595 1.17195 33.1772 7.08984 33.1772 14.3637C33.1772 17.1702 32.4493 19.8326 30.9517 22.5032C29.6163 24.8843 27.8627 26.9638 26.1668 28.9749Z" fill="#DA8A67"/>
<path d="M26.4884 6.03316C22.2892 2.7484 16.279 3.11504 12.508 6.88598C8.73711 10.657 8.37047 16.6671 11.6552 20.8663C11.7708 21.014 11.9431 21.0912 12.1172 21.0912C12.2434 21.0912 12.3706 21.0506 12.4778 20.9667C12.7327 20.7674 12.7777 20.3991 12.5783 20.1442C9.65797 16.411 9.98399 11.0674 13.3367 7.71457C16.6895 4.36176 22.0331 4.03582 25.7663 6.95613C26.0213 7.15551 26.3895 7.11043 26.5888 6.85566C26.7882 6.60074 26.7432 6.23246 26.4884 6.03316Z" fill="#DA8A67"/>
<path d="M28.3555 7.91457C28.1577 7.65848 27.7898 7.61121 27.5337 7.80895C27.2775 8.00676 27.2302 8.37473 27.428 8.63082C30.3065 12.3589 29.9654 17.6819 26.6345 21.0127C23.3037 24.3435 17.9806 24.6847 14.2526 21.8061C13.9965 21.6084 13.6285 21.6557 13.4308 21.9119C13.233 22.1679 13.2803 22.5359 13.5365 22.7337C15.4419 24.2049 17.7176 24.9283 19.9853 24.9283C22.7081 24.9283 25.4191 23.8853 27.4631 21.8413C31.2095 18.095 31.5931 12.1078 28.3555 7.91457Z" fill="#DA8A67"/>
</svg>
