<svg width="28" height="28" viewBox="0 0 28 28" fill="none" xmlns="http://www.w3.org/2000/svg">
<path d="M27.7198 11.7389L23.0781 7.67665V5.79269C23.0781 5.33957 22.7108 4.97222 22.2578 4.97222H20.018C19.9894 4.94384 15.6546 0.633539 15.6243 0.606955C14.6023 -0.287409 13.1073 -0.123096 12.3377 0.642509L7.98202 4.97222H5.74219C5.28916 4.97222 4.92188 5.33957 4.92188 5.79269V7.67665L0.280164 11.7389C0.102102 11.8947 0 12.1198 0 12.3564V25.5386C0 26.8951 1.10436 28 2.46094 28H25.5391C26.8965 28 28 26.894 28 25.5386V12.3564C28 12.1199 27.8979 11.8948 27.7198 11.7389ZM23.0781 9.85707L25.934 12.3564L23.0781 14.8557V9.85707ZM13.4725 1.82787C13.777 1.57516 14.223 1.57516 14.5275 1.82787L17.6906 4.97217H10.3094L13.4725 1.82787ZM6.5625 6.61316H21.4375V16.2916L18.7138 18.6753L15.6205 15.9663C14.6966 15.1578 13.3033 15.1578 12.3792 15.9665L9.2861 18.6752L6.5625 16.2916V6.61316ZM4.92188 9.85707V14.8557L2.06604 12.3564L4.92188 9.85707ZM1.64062 25.3709V14.1645L8.04092 19.7658L1.64062 25.3709ZM3.00278 26.3591L13.4598 17.2012C13.7677 16.9317 14.2323 16.9317 14.54 17.2011L24.9972 26.3591H3.00278ZM26.3594 25.3709L19.9591 19.7658L26.3594 14.1645V25.3709Z" fill="black"/>
<path d="M18.9766 8.25318H9.02344C8.57041 8.25318 8.20312 8.62053 8.20312 9.07365C8.20312 9.52676 8.57041 9.89411 9.02344 9.89411H18.9766C19.4296 9.89411 19.7969 9.52676 19.7969 9.07365C19.7969 8.62053 19.4296 8.25318 18.9766 8.25318Z" fill="black"/>
<path d="M18.9766 11.535H9.02344C8.57041 11.535 8.20312 11.9024 8.20312 12.3555C8.20312 12.8086 8.57041 13.176 9.02344 13.176H18.9766C19.4296 13.176 19.7969 12.8086 19.7969 12.3555C19.7969 11.9024 19.4296 11.535 18.9766 11.535Z" fill="black"/>
</svg>
