<svg width="141" height="58" viewBox="0 0 141 58" fill="none" xmlns="http://www.w3.org/2000/svg">
<path d="M1.67094 44.0122H8.35765V45.0367H2.7655V49.824H8.15865V50.8485H2.7655V57.803H1.67094V44.0122Z" fill="black"/>
<path d="M23.6653 50.3954L23.1479 49.627C23.4929 49.3775 23.944 49.1345 24.5012 48.8981C25.0584 48.6617 25.735 48.5435 26.5311 48.5435C27.5659 48.5435 28.3752 48.793 28.959 49.2921C29.5428 49.7781 29.8346 50.4742 29.8346 51.3804V57.803H28.7998V56.1087C28.5344 56.7523 28.0966 57.2317 27.4863 57.5469C26.8893 57.849 26.279 58 25.6554 58C25.138 58 24.6405 57.8949 24.1629 57.6848C23.6985 57.4615 23.3138 57.1397 23.0086 56.7194C22.7167 56.286 22.5708 55.7541 22.5708 55.1236C22.5708 54.2305 22.8759 53.5344 23.4862 53.0353C24.1098 52.5231 24.9523 52.267 26.0137 52.267C26.677 52.267 27.2409 52.3524 27.7052 52.5231C28.1696 52.6938 28.5344 52.8646 28.7998 53.0353V51.5183C28.7998 51.1637 28.7268 50.8288 28.5809 50.5136C28.4349 50.1984 28.1895 49.9423 27.8445 49.7452C27.5129 49.5482 27.0485 49.4497 26.4515 49.4497C25.7616 49.4497 25.1845 49.5614 24.7201 49.7846C24.269 50.0079 23.9174 50.2115 23.6653 50.3954ZM23.6255 55.0842C23.6255 55.7672 23.8511 56.2794 24.3022 56.6209C24.7665 56.9493 25.3105 57.1134 25.9341 57.1134C26.4515 57.1134 26.9225 56.9952 27.347 56.7588C27.7848 56.5224 28.1364 56.1744 28.4018 55.7147C28.6671 55.255 28.7998 54.6902 28.7998 54.0204V53.7446C28.4018 53.5213 27.9838 53.3571 27.546 53.252C27.1082 53.147 26.6505 53.0944 26.1729 53.0944C25.4034 53.0944 24.7864 53.2586 24.3221 53.587C23.8577 53.9153 23.6255 54.4144 23.6255 55.0842Z" fill="black"/>
<path d="M45.5746 55.2221C45.7736 55.7081 46.0853 56.135 46.5099 56.5027C46.9344 56.8705 47.5049 57.0543 48.2214 57.0543C48.7786 57.0543 49.2231 56.9164 49.5547 56.6406C49.8997 56.3648 50.0722 55.9708 50.0722 55.4586C50.0722 55.0908 49.966 54.7887 49.7537 54.5523C49.5415 54.3028 49.2629 54.0992 48.9179 53.9416C48.573 53.7708 48.2015 53.6198 47.8035 53.4884C47.3656 53.344 46.9477 53.1732 46.5497 52.9762C46.1517 52.7661 45.8266 52.4968 45.5746 52.1685C45.3225 51.827 45.1964 51.387 45.1964 50.8485C45.1964 50.3363 45.3225 49.916 45.5746 49.5876C45.8399 49.2461 46.1848 48.99 46.6094 48.8193C47.0339 48.6486 47.4784 48.5632 47.9428 48.5632C48.7255 48.5632 49.3823 48.7471 49.913 49.1148C50.4436 49.4826 50.8284 49.916 51.0672 50.4151L50.2115 50.9273C49.9992 50.5333 49.7007 50.1918 49.3159 49.9029C48.9312 49.6139 48.4336 49.4694 47.8234 49.4694C47.3855 49.4694 47.0074 49.5811 46.689 49.8043C46.3706 50.0145 46.2114 50.3428 46.2114 50.7894C46.2114 51.144 46.3109 51.4395 46.5099 51.6759C46.7089 51.8992 46.9742 52.0831 47.3059 52.2276C47.6376 52.3721 47.9892 52.51 48.3607 52.6413C48.8516 52.812 49.3027 53.0091 49.7139 53.2323C50.1385 53.4556 50.4768 53.738 50.7289 54.0795C50.9942 54.4078 51.1269 54.8281 51.1269 55.3404C51.1269 56.1284 50.8483 56.772 50.2911 57.2711C49.7471 57.757 49.0373 58 48.1617 58C47.5248 58 46.9676 57.8884 46.49 57.6651C46.0256 57.4418 45.6475 57.1529 45.3556 56.7982C45.0638 56.4436 44.8581 56.0759 44.7387 55.695L45.5746 55.2221Z" fill="black"/>
<path d="M72.4273 51.9715C72.4273 51.1966 72.2548 50.5924 71.9098 50.159C71.5649 49.7255 71.0209 49.5088 70.278 49.5088C69.7605 49.5088 69.2962 49.6336 68.8849 49.8831C68.4869 50.1327 68.1685 50.4676 67.9297 50.8879C67.7041 51.3082 67.5913 51.7745 67.5913 52.2867V57.803H66.5565V42.4361H67.5913V50.5136C67.8567 49.9226 68.2414 49.4497 68.7456 49.0951C69.263 48.7274 69.8534 48.5435 70.5168 48.5435C71.4588 48.5435 72.1818 48.8324 72.686 49.4103C73.2034 49.9882 73.4621 50.8025 73.4621 51.8533V57.803H72.4273V51.9715Z" fill="black"/>
<path d="M89.5397 44.6427C89.5397 44.4457 89.6061 44.2749 89.7387 44.1304C89.8847 43.986 90.0638 43.9137 90.2761 43.9137C90.4883 43.9137 90.6608 43.986 90.7935 44.1304C90.9394 44.2749 91.0124 44.4457 91.0124 44.6427C91.0124 44.8397 90.9394 45.0104 90.7935 45.1549C90.6608 45.2994 90.4883 45.3716 90.2761 45.3716C90.0638 45.3716 89.8847 45.2994 89.7387 45.1549C89.6061 45.0104 89.5397 44.8397 89.5397 44.6427ZM89.7586 48.7405H90.7935V57.803H89.7586V48.7405Z" fill="black"/>
<path d="M106.305 53.2717C106.305 52.3524 106.51 51.538 106.922 50.8288C107.333 50.1196 107.89 49.5614 108.593 49.1542C109.31 48.7471 110.112 48.5435 111.001 48.5435C111.89 48.5435 112.686 48.7471 113.389 49.1542C114.106 49.5614 114.67 50.1196 115.081 50.8288C115.492 51.538 115.698 52.3524 115.698 53.2717C115.698 54.178 115.492 54.9923 115.081 55.7147C114.67 56.4239 114.106 56.9821 113.389 57.3893C112.686 57.7964 111.89 58 111.001 58C110.112 58 109.31 57.7964 108.593 57.3893C107.89 56.9821 107.333 56.4239 106.922 55.7147C106.51 54.9923 106.305 54.178 106.305 53.2717ZM107.359 53.2717C107.359 53.9941 107.519 54.6442 107.837 55.2221C108.155 55.7869 108.587 56.2335 109.131 56.5618C109.688 56.877 110.311 57.0346 111.001 57.0346C111.691 57.0346 112.308 56.877 112.852 56.5618C113.409 56.2335 113.847 55.7869 114.166 55.2221C114.484 54.6442 114.643 53.9941 114.643 53.2717C114.643 52.5362 114.484 51.8861 114.166 51.3213C113.847 50.7566 113.409 50.3166 112.852 50.0014C112.308 49.673 111.691 49.5088 111.001 49.5088C110.311 49.5088 109.688 49.673 109.131 50.0014C108.587 50.3166 108.155 50.7566 107.837 51.3213C107.519 51.8861 107.359 52.5362 107.359 53.2717Z" fill="black"/>
<path d="M136.849 51.9715C136.849 51.1966 136.676 50.5924 136.331 50.159C135.986 49.7255 135.442 49.5088 134.699 49.5088C134.182 49.5088 133.718 49.6336 133.306 49.8831C132.908 50.1327 132.59 50.4676 132.351 50.8879C132.126 51.2951 132.013 51.7613 132.013 52.2867V57.803H130.978V48.7405H132.013V50.6318C132.278 49.9751 132.663 49.4629 133.167 49.0951C133.671 48.7274 134.262 48.5435 134.938 48.5435C135.893 48.5435 136.623 48.8456 137.127 49.4497C137.631 50.0408 137.884 50.8419 137.884 51.8533V57.803H136.849V51.9715Z" fill="black"/>
<path d="M0 32.1916L3.76227 1.31012H7.84594L16.5048 24.0314L25.1637 1.31012H29.2474L33.0097 32.1916H29.1718L26.1657 8.27248L17.7904 30.6381H15.2192L6.84393 8.27248L3.83789 32.1916H0Z" fill="black"/>
<path d="M52.9568 32.7905C50.9276 32.7905 49.1063 32.3475 47.493 31.4617C45.8797 30.5758 44.6067 29.3717 43.674 27.8495C42.7414 26.3147 42.275 24.5866 42.275 22.6651C42.275 21.2427 42.5397 19.9139 43.0691 18.6786C43.5984 17.4433 44.3358 16.3578 45.281 15.422C46.2263 14.4737 47.3229 13.7376 48.5707 13.2135C49.8185 12.6895 51.1545 12.4274 52.5787 12.4274C54.5953 12.4274 56.3599 12.8392 57.8724 13.6627C59.3974 14.4862 60.5822 15.6341 61.4267 17.1065C62.2837 18.5788 62.7123 20.2882 62.7123 22.2346C62.7123 22.3969 62.706 22.5279 62.6934 22.6277C62.6807 22.7275 62.6555 22.8585 62.6177 23.0207H45.9806C45.9806 24.3558 46.2831 25.5349 46.888 26.558C47.5056 27.5812 48.3501 28.386 49.4214 28.9724C50.5054 29.5464 51.7469 29.8334 53.1459 29.8334C54.4693 29.8334 55.6541 29.5651 56.7002 29.0286C57.7463 28.492 58.6538 27.6935 59.4226 26.6329L62.1073 28.0179C61.1872 29.5277 59.9205 30.7005 58.3072 31.5365C56.7065 32.3725 54.923 32.7905 52.9568 32.7905ZM46.1696 20.3443H59.0256C58.8492 19.3586 58.4584 18.4977 57.8534 17.7615C57.2611 17.0129 56.5111 16.4327 55.6037 16.0209C54.7088 15.5967 53.7194 15.3846 52.6354 15.3846C51.5011 15.3846 50.4739 15.5905 49.5538 16.0022C48.6463 16.4015 47.8964 16.9754 47.304 17.7241C46.7242 18.4602 46.3461 19.3337 46.1696 20.3443Z" fill="black"/>
<path d="M72.5312 32.1916V13.0264H76.1989V15.8338C76.8417 14.7233 77.661 13.8811 78.6567 13.3071C79.6524 12.7207 80.7805 12.4274 82.0409 12.4274C82.6458 12.4274 83.2571 12.5023 83.8747 12.652C84.5049 12.7893 85.0469 12.9764 85.5006 13.2135L83.9882 16.2829C83.5974 16.0708 83.1437 15.9024 82.6269 15.7776C82.1102 15.6528 81.6249 15.5905 81.1712 15.5905C80.3267 15.5905 79.5201 15.8088 78.7512 16.2455C77.995 16.6697 77.3774 17.225 76.8985 17.9112C76.4321 18.5975 76.1989 19.3337 76.1989 20.1197V32.1916H72.5312Z" fill="black"/>
<path d="M101.725 32.7905C99.9225 32.7905 98.2903 32.3538 96.8282 31.4804C95.3788 30.5945 94.2255 29.3842 93.3684 27.8495C92.524 26.3147 92.1017 24.5617 92.1017 22.5903C92.1017 20.6438 92.5177 18.9094 93.3495 17.3872C94.1814 15.8525 95.322 14.6422 96.7715 13.7563C98.2209 12.8704 99.8721 12.4274 101.725 12.4274C103.363 12.4274 104.857 12.7893 106.206 13.513C107.567 14.2367 108.619 15.2411 109.363 16.5263V13.0264H113.031V32.1916H109.363V28.5981C108.518 29.9207 107.434 30.9501 106.111 31.6862C104.788 32.4224 103.326 32.7905 101.725 32.7905ZM102.708 29.6649C104.031 29.6649 105.197 29.3655 106.206 28.7665C107.226 28.1552 108.027 27.3192 108.607 26.2586C109.186 25.198 109.476 23.9815 109.476 22.609C109.476 21.2365 109.186 20.0199 108.607 18.9593C108.027 17.8988 107.226 17.069 106.206 16.4701C105.197 15.8587 104.031 15.553 102.708 15.553C101.397 15.553 100.231 15.8587 99.2103 16.4701C98.1894 17.069 97.3828 17.8988 96.7904 18.9593C96.2106 20.0199 95.9207 21.2365 95.9207 22.609C95.9207 23.969 96.2106 25.1855 96.7904 26.2586C97.3828 27.3192 98.1894 28.1552 99.2103 28.7665C100.231 29.3655 101.397 29.6649 102.708 29.6649Z" fill="black"/>
<path d="M124.552 32.1916V0H128.22V20.6251L135.782 13.0264H140.546L131.528 22.1598L141 32.1916H136.292L128.22 23.5448V32.1916H124.552Z" fill="black"/>
</svg>
