<svg width="50" height="50" viewBox="0 0 50 50" fill="none" xmlns="http://www.w3.org/2000/svg">
<g clip-path="url(#clip0)">
<path d="M31.1761 31.4949L29.0536 22.3844V16.5273C29.0536 16.2361 28.8175 16 28.5263 16H26.7427C26.4514 16 26.2153 16.2361 26.2153 16.5273C26.2153 17.1975 25.6701 17.7427 25 17.7427C24.3299 17.7427 23.7847 17.1975 23.7847 16.5273C23.7847 16.2361 23.5486 16 23.2574 16H21.4737C21.3338 16 21.1995 16.0557 21.1006 16.1547C21.0016 16.2538 20.9462 16.3882 20.9464 16.5282L20.9556 22.345L18.824 31.495C18.8097 31.5431 18.8022 31.5936 18.8022 31.6451V31.6492C18.8022 31.8937 18.9695 32.1028 19.2011 32.1607C20.1087 32.5079 21.0508 32.7733 22.0067 32.9518C22.0042 32.9726 22.0026 32.9935 22.0026 33.0146C22.0026 33.253 22.1613 33.4564 22.3818 33.5208C23.2181 33.8388 24.0988 34 25 34C25.9059 34 26.7908 33.8372 27.6309 33.516C27.8447 33.4475 27.9975 33.2466 27.9975 33.0128C27.9975 32.9923 27.9959 32.972 27.9935 32.9519C28.9497 32.7733 29.8912 32.5079 30.7989 32.1607C31.0305 32.1028 31.1979 31.8937 31.1979 31.6491V31.645C31.1979 31.5936 31.1903 31.5431 31.1761 31.4949V31.4949ZM22.7919 17.0547C23.0303 18.0529 23.9299 18.7973 25 18.7973C26.0702 18.7973 26.9698 18.0529 27.2082 17.0547H27.999V21.9177H22.0096L22.0019 17.0547H22.7919ZM27.8451 31.9059L27.008 26.0204C26.9669 25.7321 26.6998 25.5315 26.4116 25.5726C26.1233 25.6137 25.9228 25.8806 25.9638 26.169L26.8868 32.6585C26.2784 32.849 25.6455 32.9453 25 32.9453C24.3546 32.9453 23.7216 32.8489 23.1133 32.6585L24.0363 26.169C24.0773 25.8806 23.8768 25.6137 23.5885 25.5726C23.3003 25.5318 23.0331 25.7321 22.9921 26.0204L22.1548 31.9068C21.4066 31.7646 20.6677 31.5654 19.9495 31.3122L21.8923 22.9724H28.1077L30.0505 31.3122C29.3323 31.5654 28.5936 31.7637 27.8451 31.9059V31.9059Z" fill="black"/>
</g>
<defs>
<clipPath id="clip0">
<rect width="18" height="18" fill="white" transform="translate(16 16)"/>
</clipPath>
</defs>
</svg>
