<svg width="50" height="50" viewBox="0 0 50 50" fill="none" xmlns="http://www.w3.org/2000/svg">
<g clip-path="url(#clip0)">
<path d="M32.0796 25.1533C31.4223 24.4445 30.524 24.0542 29.5504 24.0542H28.2873C27.1883 24.0542 26.2942 23.1601 26.2942 22.0611V16.5284C26.2942 16.2366 26.0577 16 25.7659 16H23.8804C22.8981 16 22.0702 16.6741 21.835 17.584H17.4207C17.1289 17.584 16.8923 17.8205 16.8923 18.1123V33.4879C16.8923 33.7797 17.1289 34 17.4207 34H21.5246C21.6825 34 21.8322 33.9456 21.9326 33.8237L22.4607 33.0058H24.3638L24.8929 33.7719C24.9915 33.9147 25.1541 34 25.3277 34H32.5794C32.8711 34 33.1077 33.7634 33.1077 33.4716V27.9547C33.1077 26.8631 32.7426 25.8682 32.0796 25.1533ZM23.8804 17.0568H25.2375V21.1934L23.7284 22.7025C23.522 22.9088 23.522 23.2434 23.7284 23.4497C23.8315 23.5529 23.9668 23.6045 24.102 23.6045C24.2372 23.6045 24.3724 23.5529 24.4756 23.4497L25.2916 22.6337C25.3738 23.0648 25.547 23.4641 25.7906 23.8105L24.4699 25.1312C24.2636 25.3375 24.2636 25.672 24.4699 25.8784C24.5731 25.9816 24.7083 26.0331 24.8435 26.0331C24.9787 26.0331 25.114 25.9815 25.2171 25.8784L26.5378 24.5577C26.8843 24.8013 27.2835 24.9744 27.7146 25.0567L26.8986 25.8727C26.6923 26.0791 26.6923 26.4136 26.8986 26.6199C27.0018 26.7231 27.137 26.7747 27.2722 26.7747C27.4074 26.7747 27.5427 26.7231 27.6458 26.6199L29.1549 25.1108H29.5504C30.9993 25.1108 32.051 26.3069 32.051 27.9547V29.6351H22.3159L21.1985 28.933C21.1143 28.8801 21.0169 28.852 20.9174 28.852H17.9491V20.9014H21.2335C22.111 20.9014 22.8249 20.1876 22.8249 19.3101C22.8249 19.3101 22.8249 18.1242 22.8249 18.1123C22.8248 17.5303 23.2984 17.0568 23.8804 17.0568V17.0568ZM21.7681 18.6407V19.3101C21.7681 19.6049 21.5283 19.8447 21.2335 19.8447H17.9491V18.6407H21.7681ZM32.051 32.9432H25.6049L25.0758 32.1771C24.9772 32.0343 24.8147 31.949 24.6411 31.949H22.2112C22.0533 31.949 21.9036 32.0197 21.8032 32.1416L21.2751 32.9432H17.9491V29.9088H20.7652L21.8826 30.6109C21.9668 30.6638 22.0642 30.6919 22.1637 30.6919H32.051V31.8603V32.9432Z" fill="black"/>
</g>
<defs>
<clipPath id="clip0">
<rect width="18" height="18" fill="white" transform="translate(16 16)"/>
</clipPath>
</defs>
</svg>
