<svg width="50" height="50" viewBox="0 0 50 50" fill="none" xmlns="http://www.w3.org/2000/svg">
<g clip-path="url(#clip0)">
<path d="M33.8456 19.3794L30.621 16.1549C30.4151 15.949 30.0812 15.949 29.8753 16.1549L28.5895 17.4407L28.4048 17.256C28.1989 17.05 27.865 17.05 27.659 17.256C27.4531 17.4619 27.4531 17.7958 27.659 18.0017L27.8438 18.1865L22.5909 23.4393C21.7978 23.5105 21.0244 23.8489 20.4186 24.4547L19.6646 25.2087C19.0505 25.8228 18.7034 26.6041 18.6228 27.4074L16.1545 29.8757C16.0556 29.9746 16 30.1087 16 30.2486C16 30.3885 16.0556 30.5226 16.1545 30.6215L19.379 33.846C19.4779 33.9449 19.612 34.0005 19.7519 34.0005C19.8918 34.0005 20.0258 33.9449 20.1247 33.846L22.5931 31.3777C23.3964 31.2971 24.1777 30.95 24.7917 30.3359L25.5458 29.5819C26.1516 28.9761 26.4899 28.2027 26.5612 27.4096L31.8141 22.1567L31.9988 22.3414C32.1017 22.4444 32.2367 22.4959 32.3716 22.4959C32.5066 22.4959 32.6416 22.4444 32.7445 22.3414C32.9504 22.1354 32.9504 21.8016 32.7445 21.5956L32.5598 21.4109L33.8455 20.1252C34.0515 19.9193 34.0515 19.5854 33.8456 19.3794V19.3794ZM19.7519 32.7274L17.2731 30.2486L18.7454 28.7764C18.9091 29.3478 19.2154 29.8866 19.6646 30.3359C20.1139 30.7852 20.6527 31.0914 21.2241 31.2551L19.7519 32.7274ZM24.8001 28.8361L24.046 29.5901C23.0436 30.5925 21.4127 30.5925 20.4104 29.5901C19.408 28.5878 19.408 26.9568 20.4104 25.9545L21.1644 25.2004C21.6454 24.7195 22.2771 24.479 22.9088 24.479C23.4064 24.479 23.9036 24.6289 24.3275 24.9272L22.3144 26.9403C22.1085 27.1462 22.1085 27.4801 22.3144 27.6861C22.4174 27.789 22.5524 27.8405 22.6873 27.8405C22.8222 27.8405 22.9572 27.7891 23.0601 27.6861L25.0732 25.673C25.7504 26.6351 25.6597 27.9763 24.8001 28.8361V28.8361ZM26.4213 26.0579C26.2585 25.5246 25.9668 25.0225 25.5458 24.6016L25.3989 24.4547C24.9779 24.0337 24.4759 23.742 23.9426 23.5791L28.5896 18.9322L31.0683 21.4109L26.4213 26.0579ZM31.8141 20.6651L29.3353 18.1864L30.2482 17.2736L32.7269 19.7523L31.8141 20.6651Z" fill="black"/>
<path d="M26.8022 22.6705C26.5263 22.6705 26.2621 22.913 26.2748 23.1978C26.2876 23.4835 26.5065 23.7252 26.8022 23.7252C27.078 23.7252 27.3423 23.4826 27.3295 23.1978C27.3167 22.9121 27.0978 22.6705 26.8022 22.6705Z" fill="black"/>
<path d="M28.4942 20.9785C28.2183 20.9785 27.9541 21.2211 27.9668 21.5059C27.9796 21.7916 28.1985 22.0332 28.4942 22.0332C28.77 22.0332 29.0343 21.7907 29.0215 21.5059C29.0087 21.2201 28.7898 20.9785 28.4942 20.9785Z" fill="black"/>
</g>
<defs>
<clipPath id="clip0">
<rect width="18" height="18" fill="white" transform="translate(16 16)"/>
</clipPath>
</defs>
</svg>
