<svg width="50" height="50" viewBox="0 0 50 50" fill="none" xmlns="http://www.w3.org/2000/svg">
<path d="M30.5828 23.6894C30.0991 23.6278 29.5886 23.5408 28.9449 23.4097L24.3694 18.8341C24.1634 18.6282 23.8295 18.6282 23.6236 18.8341C22.8735 19.5842 22.4604 20.5816 22.4604 21.6424C22.4604 22.0461 22.5204 22.4405 22.6359 22.8157L20.7302 21.5178C19.5025 20.6816 18.079 20.1111 16.6137 19.868C16.4609 19.8426 16.3046 19.8858 16.1864 19.986C16.0682 20.0862 16 20.2333 16 20.3882V30.7929C16 31.0841 16.2361 31.3202 16.5274 31.3202H21.4254C21.7167 31.3202 21.9528 31.0841 21.9528 30.7929V30.3575L25.5213 31.2976C25.5652 31.3092 25.6103 31.315 25.6557 31.315H33.4727C33.7639 31.315 34 31.0789 34 30.7877V27.5731C34 25.6066 32.5309 23.937 30.5828 23.6894V23.6894ZM25.359 24.4518L26.9272 22.8835L27.935 23.8914L26.7427 25.0647C26.2732 24.8795 25.8116 24.6749 25.359 24.4518ZM24.0299 19.9862L26.1815 22.1378L24.4918 23.8274L24.3694 23.7049C23.8185 23.154 23.5151 22.4215 23.5151 21.6424C23.515 21.0421 23.6952 20.4694 24.0299 19.9862ZM20.1364 22.3895L22.5383 24.0253C23.8284 24.9039 25.2239 25.6264 26.686 26.1727C26.8781 26.2444 27.0943 26.1984 27.2405 26.0546L28.8562 24.4678C29.4703 24.5908 29.9706 24.6747 30.4497 24.7356C31.8724 24.9165 32.9453 26.1363 32.9453 27.5731V27.9894H26.0579L21.5598 26.8043C21.5159 26.793 21.4707 26.7872 21.4254 26.7869H17.0547V21.0322C18.1517 21.2927 19.2066 21.7562 20.1364 22.3895V22.3895ZM32.9453 30.2603H25.724L21.5598 29.1632C21.4016 29.1216 21.2331 29.1556 21.1035 29.2555C20.974 29.3553 20.8981 29.5096 20.8981 29.6732V30.2656H17.0547V27.8416H21.3571L25.8552 29.0268C25.8662 29.0297 25.8772 29.0322 25.8884 29.0343C25.9224 29.041 25.9564 29.0443 25.9899 29.0443C25.991 29.0443 25.9921 29.0442 25.9932 29.0442H32.9453V30.2603Z" fill="black"/>
</svg>
