<svg width="50" height="50" viewBox="0 0 50 50" fill="none" xmlns="http://www.w3.org/2000/svg">
<g clip-path="url(#clip0)">
<path d="M32.2844 17.539C31.5973 16.726 30.6422 16.182 29.5951 16.0072C29.3965 15.9742 29.2018 16.057 29.0863 16.211C28.0956 17.4833 26.6068 18.2128 25 18.2128C23.3904 18.2128 21.899 17.4806 20.9083 16.204C20.7894 16.0508 20.5961 15.9754 20.4049 16.0072C19.3577 16.182 18.4027 16.726 17.7156 17.5389C17.0279 18.3526 16.6492 19.3882 16.6492 20.4551V32.1219C16.6492 32.4131 16.8853 32.6492 17.1766 32.6492H19.7812V33.4727C19.7812 33.7639 20.0173 34 20.3086 34H29.6914C29.9827 34 30.2188 33.7639 30.2188 33.4727V32.6493H32.8234C33.1147 32.6493 33.3508 32.4132 33.3508 32.1219V20.4551C33.3508 19.3882 32.9721 18.3526 32.2844 17.539V17.539ZM20.3086 23.5523C20.0173 23.5523 19.7812 23.7884 19.7812 24.0796V31.5946H17.7039V20.4551C17.7039 19.6371 17.9941 18.8433 18.5211 18.2198C18.9824 17.6739 19.6013 17.2865 20.2869 17.1094C21.3592 18.3518 22.8489 19.1102 24.4727 19.2456V20.987H23.9265C23.6352 20.987 23.3991 21.2231 23.3991 21.5143C23.3991 21.8056 23.6352 22.0417 23.9265 22.0417H24.4727V23.9677H23.9265C23.6352 23.9677 23.3991 24.2038 23.3991 24.495C23.3991 24.7862 23.6352 25.0224 23.9265 25.0224H24.4727V26.9484H23.9265C23.6352 26.9484 23.3991 27.1845 23.3991 27.4757C23.3991 27.7669 23.6352 28.0031 23.9265 28.0031H24.4727V29.9291H23.9265C23.6352 29.9291 23.3991 30.1652 23.3991 30.4564C23.3991 30.7477 23.6352 30.9838 23.9265 30.9838H24.4727V32.9453H20.8359V24.0796C20.8359 23.7884 20.5998 23.5523 20.3086 23.5523V23.5523ZM32.2961 31.5946H30.2188V24.0796C30.2188 23.7884 29.9827 23.5523 29.6914 23.5523C29.4002 23.5523 29.1641 23.7884 29.1641 24.0796V32.9453H25.5274V30.9838H26.0923C26.3835 30.9838 26.6197 30.7477 26.6197 30.4565C26.6197 30.1652 26.3835 29.9291 26.0923 29.9291H25.5274V28.0031H26.0923C26.3835 28.0031 26.6197 27.767 26.6197 27.4757C26.6197 27.1845 26.3835 26.9484 26.0923 26.9484H25.5274V25.0224H26.0923C26.3835 25.0224 26.6197 24.7863 26.6197 24.495C26.6197 24.2038 26.3835 23.9677 26.0923 23.9677H25.5274V22.0417H26.0923C26.3835 22.0417 26.6197 21.8056 26.6197 21.5144C26.6197 21.2231 26.3835 20.987 26.0923 20.987H25.5274V19.2456C27.1512 19.1102 28.6409 18.3517 29.7131 17.1094C30.3987 17.2865 31.0176 17.6739 31.4789 18.2197C32.0059 18.8433 32.2961 19.6371 32.2961 20.4551V31.5946Z" fill="black"/>
</g>
<defs>
<clipPath id="clip0">
<rect width="18" height="18" fill="white" transform="translate(16 16)"/>
</clipPath>
</defs>
</svg>
