<svg width="50" height="50" viewBox="0 0 50 50" fill="none" xmlns="http://www.w3.org/2000/svg">
<path d="M30.9908 16H19.0093C18.718 16 18.4819 16.2361 18.4819 16.5273V33.4727C18.4819 33.7639 18.718 34 19.0093 34H23.3486C23.6248 34 23.8542 33.7868 23.8745 33.5114L24.5416 24.4539H25.4584L26.1255 33.5114C26.1459 33.7868 26.3753 34 26.6515 34H30.9908C31.282 34 31.5181 33.7639 31.5181 33.4727V16.5273C31.5181 16.2361 31.282 16 30.9908 16ZM30.4634 20.964C29.1722 20.7746 28.1777 19.6599 28.1777 18.317V17.0547H30.4634V20.964ZM21.8223 17.0547V18.317C21.8223 19.6599 20.8278 20.7746 19.5366 20.964V17.0547H21.8223ZM19.5366 32.9453V31.7833H22.9442L22.8586 32.9453H19.5366ZM26.8012 23.3992H23.1988C22.9076 23.3992 22.6715 23.6353 22.6715 23.9266C22.6715 24.2178 22.9076 24.4539 23.1988 24.4539H23.4841L23.0219 30.7286H19.5366V22.0271C21.4109 21.8314 22.877 20.2422 22.877 18.317V17.0547H27.123V18.317C27.123 20.2422 28.5891 21.8314 30.4634 22.0271V30.7286H26.9781L26.516 24.4539H26.8012C27.0924 24.4539 27.3285 24.2178 27.3285 23.9266C27.3285 23.6353 27.0924 23.3992 26.8012 23.3992V23.3992ZM27.1414 32.9453L27.0558 31.7833H30.4634V32.9453H27.1414Z" fill="black"/>
</svg>
