<svg width="50" height="50" viewBox="0 0 50 50" fill="none" xmlns="http://www.w3.org/2000/svg">
<g clip-path="url(#clip0)">
<path d="M30.7259 21.4705H29.4085V20.4085C29.4085 17.9776 27.4309 16 25 16C22.5692 16 20.5915 17.9776 20.5915 20.4085V21.4705H19.2741C18.3796 21.4705 17.6518 22.1983 17.6518 23.0929V30.3761C17.6518 32.3743 19.2775 34 21.2757 34H28.7244C30.7226 34 32.3482 32.3743 32.3482 30.3761V23.0929C32.3482 22.1983 31.6204 21.4705 30.7259 21.4705V21.4705ZM21.6462 20.4085C21.6462 18.5592 23.1507 17.0547 25 17.0547C26.8493 17.0547 28.3538 18.5592 28.3538 20.4085V21.4705H21.6462V20.4085ZM23.5884 22.5252H26.4116V23.092C26.4116 23.8704 25.7783 24.5036 25 24.5036C24.2216 24.5036 23.5884 23.8704 23.5884 23.092V22.5252ZM31.2935 30.3761C31.2935 31.7928 30.141 32.9453 28.7243 32.9453H21.2757C19.859 32.9453 18.7065 31.7928 18.7065 30.3761V23.0929C18.7065 22.7799 18.9612 22.5252 19.2741 22.5252H22.5337V23.092C22.5337 24.4519 23.6401 25.5583 25 25.5583C26.3599 25.5583 27.4663 24.4519 27.4663 23.092V22.5252H30.7259C31.0388 22.5252 31.2935 22.7799 31.2935 23.0929V30.3761H31.2935Z" fill="black"/>
<path d="M28.6267 26.7684H21.3734C21.0821 26.7684 20.846 27.0045 20.846 27.2958V27.4845C20.846 29.775 22.7095 31.6385 25 31.6385C27.2906 31.6385 29.154 29.775 29.154 27.4845V27.2958C29.154 27.0045 28.9179 26.7684 28.6267 26.7684V26.7684ZM25 30.5838C23.4055 30.5838 22.0883 29.3733 21.9191 27.8231H28.081C27.9117 29.3733 26.5946 30.5838 25 30.5838V30.5838Z" fill="black"/>
</g>
<defs>
<clipPath id="clip0">
<rect width="18" height="18" fill="white" transform="translate(16 16)"/>
</clipPath>
</defs>
</svg>
