<svg width="50" height="50" viewBox="0 0 50 50" fill="none" xmlns="http://www.w3.org/2000/svg">
<g clip-path="url(#clip0)">
<path d="M30.4123 18.3485C30.4043 18.316 30.3938 18.2839 30.3795 18.253C29.9433 17.3045 29.1849 16.5333 28.2438 16.0814L28.1829 16.0522C28.1114 16.0178 28.0332 16 27.9539 16H22.0461C21.9668 16 21.8885 16.0178 21.817 16.0522L21.7562 16.0814C20.8152 16.5333 20.0567 17.3045 19.6205 18.253C19.6062 18.284 19.5957 18.3161 19.5878 18.3488C17.9687 18.8907 16.8591 20.414 16.8591 22.1423V31.9336C16.8591 32.2258 17.096 32.4628 17.3882 32.4628H19.9183V33.4708C19.9183 33.7631 20.1552 34 20.4474 34H29.5526C29.8449 34 30.0818 33.7631 30.0818 33.4708V32.4628H32.6118C32.904 32.4628 33.1409 32.2258 33.1409 31.9336V22.1423C33.1409 20.4101 32.0326 18.8903 30.4123 18.3485V18.3485ZM32.0826 25.9919H30.0818V23.8866H32.0826V25.9919ZM29.0234 25.9919H25.5288L25.5248 23.8866H29.0234V25.9919ZM24.4705 25.9919H20.9766V23.8866H24.4665L24.4705 25.9919ZM19.9183 25.9919H17.9174V23.8866H19.9183V25.9919ZM17.9174 27.0502H19.9183V29.1554H17.9174V27.0502ZM20.9766 27.0502H24.4725L24.4764 29.1554H20.9765V27.0502H20.9766ZM25.5308 27.0502H29.0234V29.1554H25.5348L25.5308 27.0502ZM30.0818 27.0502H32.0826V29.1554H30.0818V27.0502ZM29.3064 18.4741C28.9628 19.0975 28.4302 19.6031 27.7856 19.9127C27.5222 20.0392 27.4111 20.3553 27.5377 20.6188C27.6287 20.8084 27.8179 20.919 28.0151 20.919C28.0919 20.919 28.1699 20.9022 28.2438 20.8667C28.9632 20.5212 29.5753 19.9886 30.0189 19.3334C31.2415 19.7146 32.0825 20.8478 32.0825 22.1422V22.8283H25.5228L25.5157 19.0993C26.6846 19.0425 27.6505 18.202 27.8996 17.0935C28.4929 17.4063 28.9833 17.8879 29.3064 18.4741V18.4741ZM26.809 17.0583C26.5939 17.6335 26.0386 18.0442 25.3894 18.0442H24.6106C23.9613 18.0442 23.4061 17.6335 23.191 17.0583H26.809ZM19.9915 19.3297C20.4463 19.98 21.0686 20.5044 21.7958 20.8388C22.0612 20.9609 22.3755 20.8447 22.4976 20.5792C22.6197 20.3137 22.5035 19.9994 22.238 19.8773C21.59 19.5793 21.0503 19.0844 20.6963 18.4691C21.0194 17.8851 21.5087 17.4054 22.1004 17.0935C22.3476 18.1935 23.3006 19.0292 24.4574 19.0975L24.4645 22.8283H17.9174V22.1423C17.9174 20.847 18.7642 19.7077 19.9915 19.3297V19.3297ZM17.9174 31.4044V30.2138H19.9183V31.4044H17.9174ZM20.9766 30.2138H24.4785L24.4837 32.9417H20.9766V30.2138ZM25.542 32.9417L25.5368 30.2138H29.0234V32.9417H25.542ZM30.0818 31.4044V30.2138H32.0826V31.4044H30.0818Z" fill="black"/>
</g>
<defs>
<clipPath id="clip0">
<rect width="18" height="18" fill="white" transform="translate(16 16)"/>
</clipPath>
</defs>
</svg>
