<svg width="50" height="50" viewBox="0 0 50 50" fill="none" xmlns="http://www.w3.org/2000/svg">
<path d="M33.7579 28.3916L31.0648 26.6598L30.0993 20.4926C29.993 19.8132 29.4167 19.3201 28.7291 19.3201H27.0765C26.4627 19.3201 25.9297 19.7145 25.7502 20.3014V20.3015C25.7071 20.4421 25.5795 20.5366 25.4325 20.5366H24.5675C24.4204 20.5366 24.2928 20.4421 24.2498 20.3014C24.0703 19.7145 23.5373 19.3201 22.9235 19.3201H21.2709C20.5832 19.3201 20.007 19.8132 19.9007 20.4925L18.9351 26.6597L16.2421 28.3916C16.0912 28.4886 16 28.6557 16 28.8351V30.1525C16 30.4437 16.2361 30.6798 16.5273 30.6798H33.4727C33.7639 30.6798 34 30.4437 34 30.1525V28.8351C34 28.6557 33.9088 28.4886 33.7579 28.3916ZM20.9427 20.6556C20.9682 20.4929 21.1062 20.3749 21.2709 20.3749H22.9235C23.0706 20.3749 23.1982 20.4694 23.2412 20.61C23.4207 21.1969 23.9537 21.5913 24.5675 21.5913H25.4325C26.0463 21.5913 26.5793 21.1969 26.7588 20.6099C26.8018 20.4694 26.9294 20.3749 27.0765 20.3749H28.7291C28.8938 20.3749 29.0318 20.4929 29.0573 20.6557L29.9642 26.4479H20.0358L20.9427 20.6556ZM32.9453 29.6251H17.0547V29.123L19.5744 27.5026H30.4255L32.9453 29.123V29.6251Z" fill="black"/>
</svg>
