<svg width="50" height="50" viewBox="0 0 50 50" fill="none" xmlns="http://www.w3.org/2000/svg">
<g clip-path="url(#clip0)">
<path d="M30.3899 18.0447C29.9321 17.1796 29.2054 16.4773 28.32 16.0521C28.2486 16.0178 28.1704 16 28.0913 16H21.9087C21.8296 16 21.7514 16.0178 21.68 16.0521C20.7946 16.4773 20.068 17.1796 19.6101 18.0447C17.9033 18.559 16.7203 20.1426 16.7203 21.9353V31.5471C16.7203 31.8388 16.9568 32.0753 17.2486 32.0753H19.5123V33.4718C19.5123 33.7635 19.7488 34 20.0405 34H29.9594C30.2512 34 30.4877 33.7635 30.4877 33.4718V32.0753H32.7514C33.0431 32.0753 33.2796 31.8388 33.2796 31.5471V21.9353C33.2796 20.1425 32.0967 18.559 30.3899 18.0447V18.0447ZM29.3188 18.3004L26.6007 19.9394L28.2736 17.2371C28.6931 17.5132 29.0501 17.8763 29.3188 18.3004V18.3004ZM25 20.5179L22.857 17.0564H27.143L25 20.5179ZM21.7263 17.2371L23.3993 19.9394L20.6812 18.3004C20.9499 17.8763 21.3069 17.5132 21.7263 17.2371V17.2371ZM17.7768 31.0189V29.8233H19.5123V31.0189H17.7768ZM29.4312 32.9436H20.5688V23.2437C20.5688 22.952 20.3323 22.7155 20.0405 22.7155C19.7488 22.7155 19.5123 22.952 19.5123 23.2437V28.7668H17.7768V21.9353C17.7768 20.6147 18.6438 19.4473 19.8971 19.0612L22.6489 20.7205V23.8324C22.6489 24.1242 22.8854 24.3606 23.1771 24.3606C23.4689 24.3606 23.7054 24.1242 23.7054 23.8324V21.3575L24.7273 21.9737C24.8112 22.0243 24.9056 22.0496 25 22.0496C25.0945 22.0496 25.1889 22.0243 25.2728 21.9737L26.2947 21.3575V22.8976C26.2947 23.1893 26.5311 23.4258 26.8229 23.4258C27.1146 23.4258 27.3511 23.1893 27.3511 22.8976V20.7205L30.103 19.0612C31.3563 19.4473 32.2232 20.6146 32.2232 21.9353V28.7668H30.4877V23.2437C30.4877 22.952 30.2512 22.7155 29.9595 22.7155C29.6678 22.7155 29.4313 22.952 29.4313 23.2437V32.9436H29.4312ZM30.4877 31.0189V29.8233H32.2232V31.0189H30.4877Z" fill="black"/>
<path d="M27.6412 27.1964H22.3588C22.0671 27.1964 21.8306 27.4328 21.8306 27.7246V29.6607C21.8306 30.6163 22.608 31.3938 23.5636 31.3938H26.4364C27.392 31.3938 28.1695 30.6163 28.1695 29.6607V27.7246C28.1694 27.4328 27.9329 27.1964 27.6412 27.1964ZM27.113 29.6607C27.113 30.0338 26.8094 30.3373 26.4363 30.3373H23.5636C23.1905 30.3373 22.887 30.0338 22.887 29.6607V28.2528H27.113V29.6607Z" fill="black"/>
<path d="M177.312 -170.841C164.29 -195.448 143.622 -215.423 118.435 -227.519C116.405 -228.494 114.182 -229 111.93 -229H-63.929C-66.181 -229 -68.404 -228.494 -70.434 -227.519C-95.621 -215.423 -116.289 -195.448 -129.311 -170.84C-177.862 -156.212 -211.51 -111.167 -211.51 -60.173V213.228C-211.51 221.526 -204.783 228.253 -196.485 228.253H-132.094V267.975C-132.094 276.273 -125.367 283 -117.069 283H165.069C173.367 283 180.094 276.273 180.094 267.975V228.253H244.485C252.783 228.253 259.51 221.526 259.51 213.228V-60.173C259.51 -111.168 225.863 -156.211 177.312 -170.841ZM146.846 -163.566L69.53 -116.946L117.117 -193.81C129.048 -185.959 139.202 -175.631 146.846 -163.566ZM24 -100.491L-36.956 -198.95H84.956L24 -100.491ZM-69.117 -193.81L-21.531 -116.947L-98.845 -163.566C-91.202 -175.631 -81.047 -185.958 -69.117 -193.81ZM-181.46 198.203V164.195H-132.094V198.203H-181.46ZM150.044 252.95H-102.044V-22.957C-102.044 -31.255 -108.771 -37.982 -117.069 -37.982C-125.367 -37.982 -132.094 -31.255 -132.094 -22.957V134.145H-181.46V-60.173C-181.46 -97.738 -156.799 -130.943 -121.149 -141.925L-42.875 -94.727V-6.211C-42.875 2.08701 -36.148 8.814 -27.85 8.814C-19.552 8.814 -12.825 2.08701 -12.825 -6.211V-76.608L16.243 -59.081C18.629 -57.643 21.315 -56.923 24.001 -56.923C26.687 -56.923 29.373 -57.642 31.759 -59.081L60.826 -76.608V-32.802C60.826 -24.504 67.553 -17.777 75.851 -17.777C84.149 -17.777 90.876 -24.504 90.876 -32.802V-94.728L169.151 -141.926C204.802 -130.943 229.461 -97.739 229.461 -60.174V134.145H180.095V-22.957C180.095 -31.255 173.368 -37.982 165.07 -37.982C156.772 -37.982 150.045 -31.255 150.045 -22.957V252.95H150.044ZM180.094 198.203V164.195H229.46V198.203H180.094Z" fill="black"/>
</g>
<defs>
<clipPath id="clip0">
<rect width="50" height="50" fill="white"/>
</clipPath>
</defs>
</svg>
